<svg xmlns="http://www.w3.org/2000/svg" data-name="Слой 1" viewBox="0 0 100 125" x="0px" y="0px"><title>cat</title><path d="M46.23826,84.79693c-0.98712-.72155-1.97835-1.43759-2.95891-2.168a4.44736,4.44736,0,0,1-.85535-0.74237,14.77707,14.77707,0,0,1-3.32215-8.18582,6.33338,6.33338,0,0,1,.60636-3.16406,5.30716,5.30716,0,0,0,.399-1.3354,36.3917,36.3917,0,0,1,1.35272-4.81918,53.20524,53.20524,0,0,1,2.52936-5.79352Q45.611,54.933,47.212,51.26825a6.0887,6.0887,0,0,0,.37686-1.26252c0.27885-1.43962.54535-2.88208,0.78469-4.32872a1.06169,1.06169,0,0,0-.72309-1.34163c-0.9107-.3998-1.86241-0.70748-2.76731-1.11893a20.26062,20.26062,0,0,1-4.7261-2.48953,17.25255,17.25255,0,0,1-2.04143-1.78824A11.37837,11.37837,0,0,1,35.41943,32.289c-0.16562-1.57364-.34713-3.14693-0.454-4.725A19.74242,19.74242,0,0,1,34.9739,24.582c0.12791-1.51664.3731-3.023,0.53916-4.53692A25.02951,25.02951,0,0,1,36.824,15.04247c0.32711-1.00342.68214-1.99774,1.024-2.99638,0.019-.05543.02981-0.11361,0.04761-0.1695a0.8801,0.8801,0,0,1,.72478-0.78264,0.82444,0.82444,0,0,1,.73589.65613c0.225,0.44487.44834,0.89068,0.66485,1.33973a17.10689,17.10689,0,0,0,4.44972,5.49834c0.24416,0.20976.48712,0.42188,0.71811,0.64584a6.49218,6.49218,0,0,0,3.31564,1.68855c1.71876,0.35689,3.39969.904,5.12386,1.22392a17.10371,17.10371,0,0,0,3.32376.17539c1.69874-.02221,3.396-0.14049,5.0946-0.19675a9.51264,9.51264,0,0,1,3.5443.55459,2.03207,2.03207,0,0,0,1.45912-.03062,10.844,10.844,0,0,0,4.31515-2.78944c0.4676-.51283.955-1.0076,1.43322-1.51076a0.472,0.472,0,0,1,.83368.1499,1.43028,1.43028,0,0,1,.0595.51847q-0.01431,1.23133-.04685,2.46243c-0.05168,1.84417-.11809,3.688-0.16206,5.5323a20.30309,20.30309,0,0,1-.54452,4.26591c-0.15044.62747-.2907,1.25805-0.41168,1.89179a11.39033,11.39033,0,0,1-2.79415,5.47983,30.41885,30.41885,0,0,1-5.04876,4.3518,18.65911,18.65911,0,0,1-2.894,1.46633q-0.63259.30831-1.28292,0.57993a1.48214,1.48214,0,0,0-.90031,1.20778,3.40669,3.40669,0,0,0,.35858,2.38547c0.64681,1.14707,1.32088,2.27876,1.981,3.41837q2.20219,3.80207,4.39956,7.60693c0.32141,0.55815.6087,1.13584,0.91768,1.70126a70.58776,70.58776,0,0,1,3.40936,7.70971,11.4646,11.4646,0,0,1,.75605,5.06869c-0.05028.75721-.0816,1.51726-0.17265,2.26984a9.77077,9.77077,0,0,1-1.25655,3.42522c-0.19392.36121-.35423,0.74034-0.53434,1.10912a5.308,5.308,0,0,1-1.681,2.08792,21.25337,21.25337,0,0,1-3.8794,2.38823,17.05163,17.05163,0,0,1-1.91813.63129c-0.75672.22418-1.51311,0.46234-2.285,0.61878-0.74133.15026-1.5053,0.18514-2.25347,0.30677a5.44314,5.44314,0,0,0-1.34727.339,14.973,14.973,0,0,1-6.63449,1.421c-0.9609-.028-1.92615.10014-2.88964,0.15312a11.42354,11.42354,0,0,1-3.12981-.344,16.47458,16.47458,0,0,1-3.305-.8553c-1.24821-.56605-2.4932-1.14608-3.70128-1.79174-1.13438-.60628-2.22757-1.29182-3.3233-1.96774a14.10843,14.10843,0,0,1-4.40215-4.7018,16.42385,16.42385,0,0,1-1.82161-3.69188,9.48592,9.48592,0,0,1-.33727-1.35882,23.31082,23.31082,0,0,1-.17592-5.34667c0.08029-1.25517.249-2.50634,0.41938-3.75366a21.35351,21.35351,0,0,1,1.37841-4.06885,11.26269,11.26269,0,0,1,2.03556-3.36614,5.08942,5.08942,0,0,1,4.78536-2.07484,4.69687,4.69687,0,0,1,4.39812,4.48424,3.40357,3.40357,0,0,1-2.01853,3.51451,16.6254,16.6254,0,0,1-2.21818.824,1.619,1.619,0,0,0-.9256.59962,8.06783,8.06783,0,0,0-1.63669,6.69182A24.14373,24.14373,0,0,0,33.624,75.49649a9.36039,9.36039,0,0,0,1.38511,2.11307c0.57368,0.77358,1.183,1.52241,1.807,2.25636a8.07394,8.07394,0,0,0,1.23065,1.24436c0.83972,0.63412,1.76559,1.15475,2.60037,1.79467a11.72533,11.72533,0,0,0,3.12334,1.36111c0.519,0.20082,1.04843.37715,1.5807,0.53984a7.6558,7.6558,0,0,0,.83288.16142Z"/></svg>
